<svg xmlns="http://www.w3.org/2000/svg" xmlns:xlink="http://www.w3.org/1999/xlink" width="31" height="33" viewBox="0 0 31 33"><defs><path id="q1caa" d="M687.22 370.54a.72.72 0 0 1-.22-.54v-3c0-.22.07-.4.22-.54a.77.77 0 0 1 .56-.21h5.42v-2.77h-5.42a.77.77 0 0 1-.56-.2.72.72 0 0 1-.22-.55v-3.49c0-.2.07-.38.22-.53a.75.75 0 0 1 .56-.22h5.42v-14.74c0-.22.07-.4.22-.54a.77.77 0 0 1 .56-.21h13.05c3.23 0 5.86.95 7.9 2.86a9.65 9.65 0 0 1 3.07 7.38 9.64 9.64 0 0 1-3.06 7.38c-2.05 1.91-4.68 2.86-7.91 2.86h-8.24v2.77h12.24c.22 0 .4.07.55.21.15.14.22.32.22.54v3c0 .22-.07.4-.22.54a.77.77 0 0 1-.55.21h-12.24v4.5a.7.7 0 0 1-.23.54.78.78 0 0 1-.54.21h-4.04a.77.77 0 0 1-.56-.21.71.71 0 0 1-.22-.54v-4.5h-5.42a.77.77 0 0 1-.56-.21zm11.57-12.05h7.75c1.72 0 3.1-.48 4.15-1.45a4.92 4.92 0 0 0 1.57-3.8c0-1.56-.53-2.83-1.57-3.8a5.86 5.86 0 0 0-4.15-1.45h-7.75z"/></defs><g><g transform="translate(-687 -343)"><use fill="#002c52" xlink:href="#q1caa"/></g></g></svg>