<svg xmlns="http://www.w3.org/2000/svg" xmlns:xlink="http://www.w3.org/1999/xlink" width="36" height="46" viewBox="0 0 36 46"><defs><path id="zbvza" d="M848.11 500.55c-4.02 0-7.42-3.47-9.15-7.68-1.27-.2-2.48-1.2-2.68-3.53-.18-2.24.56-3.15 1.5-3.5.15-4.1 1.14-6.63 2.6-8.19.9-1.18 2.43-2.33 3.4-2.93 7.7-4.71 11.64 2 11.64 2s5.28 1.54 3.36 9.37c.7.48 1.16 1.42 1 3.25-.17 2.23-1.3 3.24-2.5 3.5-1.72 4.22-5.13 7.71-9.17 7.71zm8.4-13.57v-.16a15.38 15.38 0 0 0-3.7-6.66c-2.2 2.38-6.22 5.12-13.03 4.82-.04.62-.07 1.29-.07 2 0 5.26 3.75 11.6 8.4 11.6 4.66 0 8.4-6.34 8.4-11.6zm-9.8 21.19l-1.88 10.82h-12.4c-1.32 0-2.43-1-2.43-2.24v-6.34c0-4.82 3.5-9.03 8.46-10.2l2.93-.7 4.8 4.01.17.13c-.18.17-.31.39-.37.65l-.54 2.24c-.2.83.42 1.61 1.27 1.63zM866 510.4v6.34c0 1.25-1 2.24-2.33 2.24h-12.4l-1.89-10.82c.85-.01 1.47-.8 1.27-1.63l-.54-2.24a1.3 1.3 0 0 0-.37-.65l.16-.13 4.8-4 2.9.69c4.95 1.17 8.4 5.38 8.4 10.2z"/></defs><g><g transform="translate(-830 -473)"><use fill="#002c52" xlink:href="#zbvza"/></g></g></svg>