<svg xmlns="http://www.w3.org/2000/svg" xmlns:xlink="http://www.w3.org/1999/xlink" width="30" height="38" viewBox="0 0 30 38"><defs><path id="gp99a" d="M824.25 342.9h-19.38v32.93H803V341h26.87v7.6zm8.75 10.5V379h-26.88v-34.83h17.76zm-21.88-1c0 .35.28.63.63.63H818c.34 0 .62-.28.62-.63a.63.63 0 0 0-.62-.63h-6.25a.63.63 0 0 0-.63.63zM828 372.67a.63.63 0 0 0-.63-.64h-15.62a.63.63 0 0 0-.63.64c0 .35.28.63.63.63h15.62c.35 0 .63-.28.63-.63zm0-5.07a.63.63 0 0 0-.63-.63h-15.62a.63.63 0 0 0-.63.63c0 .35.28.63.63.63h15.62c.35 0 .63-.28.63-.63zm0-5.07a.63.63 0 0 0-.63-.63h-15.62a.63.63 0 0 0-.63.63c0 .35.28.64.63.64h15.62c.35 0 .63-.29.63-.64zm0-5.06a.63.63 0 0 0-.63-.64h-15.62a.63.63 0 0 0-.63.64c0 .35.28.63.63.63h15.62c.35 0 .63-.28.63-.63zm3.75-3.17l-8.75-8.87v8.87z"/></defs><g><g transform="translate(-803 -341)"><use fill="#002c52" xlink:href="#gp99a"/></g></g></svg>