<?xml version="1.0" encoding="UTF-8" ?>
<!DOCTYPE svg PUBLIC "-//W3C//DTD SVG 1.1//EN" "http://www.w3.org/Graphics/SVG/1.1/DTD/svg11.dtd">
<svg width="294pt" height="72pt" viewBox="0 0 294 72" version="1.1" xmlns="http://www.w3.org/2000/svg">
<g id="#9da5a9ff">
<path fill="#9da5a9" opacity="1.00" d=" M 25.24 0.00 L 29.09 0.00 C 37.83 0.85 46.08 5.95 50.36 13.66 C 54.76 21.09 55.08 30.62 51.39 38.41 C 46.71 48.62 35.08 55.23 23.90 53.74 C 13.83 52.52 4.37 45.33 1.55 35.41 C 0.69 33.03 0.94 30.39 0.00 28.03 L 0.00 27.16 C -0.22 13.34 11.39 0.73 25.24 0.00 M 20.09 7.65 C 22.89 9.58 25.19 12.07 27.44 14.58 C 26.65 11.79 25.29 9.22 23.69 6.81 C 22.49 7.09 21.29 7.37 20.09 7.65 M 30.99 6.87 C 32.34 10.05 33.17 13.41 33.85 16.79 C 34.45 13.85 34.64 10.86 34.40 7.87 C 33.26 7.54 32.12 7.21 30.99 6.87 M 13.76 11.33 C 12.86 12.13 11.96 12.93 11.06 13.73 C 14.57 14.11 17.95 15.15 21.24 16.41 C 19.01 14.36 16.55 12.55 13.76 11.33 M 40.84 11.65 C 40.37 15.10 39.40 18.43 38.26 21.71 C 40.17 19.48 41.89 17.09 43.24 14.47 C 42.45 13.52 41.65 12.58 40.84 11.65 M 7.45 20.06 C 7.11 21.22 6.76 22.37 6.42 23.52 C 9.60 22.18 12.94 21.34 16.28 20.49 C 13.36 20.02 10.40 19.83 7.45 20.06 M 25.18 21.29 C 21.02 22.42 19.56 28.31 22.75 31.22 C 25.67 34.45 31.64 32.98 32.73 28.77 C 34.33 24.39 29.55 19.66 25.18 21.29 M 39.65 28.18 C 42.43 27.17 45.07 25.83 47.55 24.23 C 47.34 23.04 47.12 21.85 46.90 20.65 C 44.78 23.43 42.21 25.80 39.65 28.18 M 6.41 30.80 C 6.63 32.00 6.86 33.19 7.09 34.39 C 9.15 31.60 11.71 29.27 14.22 26.90 C 11.47 27.90 8.86 29.22 6.41 30.80 M 37.66 34.48 C 40.60 35.02 43.58 35.29 46.56 34.93 C 46.90 33.79 47.24 32.64 47.59 31.50 C 44.40 32.86 41.05 33.75 37.66 34.48 M 11.10 40.32 C 11.12 41.60 12.47 42.37 13.12 43.37 C 13.72 39.94 14.68 36.59 15.77 33.29 C 14.00 35.47 11.99 37.60 11.10 40.32 M 32.69 38.60 C 34.93 40.70 37.43 42.52 40.29 43.68 C 41.18 42.88 42.07 42.08 42.96 41.29 C 39.41 40.96 35.99 39.90 32.69 38.60 M 19.58 47.16 C 20.74 47.49 21.90 47.82 23.05 48.15 C 21.75 44.97 20.87 41.64 20.11 38.30 C 19.54 41.22 19.37 44.19 19.58 47.16 M 26.46 40.34 C 27.41 43.09 28.74 45.69 30.25 48.18 C 31.45 47.94 32.64 47.70 33.83 47.46 C 31.10 45.38 28.74 42.89 26.46 40.34 Z" />
<path fill="#9da5a9" opacity="1.00" d=" M 241.09 0.00 L 243.00 0.00 C 243.97 0.97 246.07 2.23 245.01 3.87 C 244.39 6.13 240.80 6.28 240.00 4.07 C 239.24 2.62 240.64 1.30 241.09 0.00 Z" />
<path fill="#9da5a9" opacity="1.00" d=" M 127.07 0.91 C 127.74 0.98 129.07 1.11 129.74 1.17 C 129.73 9.81 129.90 18.45 129.63 27.08 C 128.39 26.87 127.26 26.43 126.50 25.38 C 124.38 26.79 121.44 27.77 119.19 26.08 C 116.70 24.18 117.33 20.74 117.19 18.02 C 117.35 15.14 116.60 11.40 119.36 9.48 C 121.87 7.80 124.87 9.07 127.01 10.70 C 126.91 7.44 126.91 4.17 127.07 0.91 M 121.17 11.92 C 119.00 14.31 120.39 18.10 120.07 21.06 C 119.40 24.92 125.82 25.21 126.75 22.02 C 127.11 19.14 127.15 16.17 126.66 13.31 C 125.61 11.40 123.01 11.16 121.17 11.92 Z" />
<path fill="#9da5a9" opacity="1.00" d=" M 70.48 1.85 C 73.83 1.53 77.24 1.51 80.59 1.85 C 80.78 2.38 81.17 3.46 81.36 4.00 C 79.92 4.09 78.49 4.18 77.06 4.28 C 76.95 10.91 76.99 17.55 77.03 24.18 C 78.32 24.28 79.61 24.37 80.90 24.46 C 80.90 25.04 80.91 26.20 80.92 26.78 C 77.34 26.90 73.76 26.90 70.19 26.78 C 70.18 26.20 70.16 25.05 70.15 24.48 C 71.46 24.38 72.77 24.28 74.08 24.18 C 74.15 17.55 74.13 10.93 74.09 4.30 C 72.65 4.20 71.22 4.09 69.79 3.99 C 69.96 3.45 70.31 2.39 70.48 1.85 Z" />
<path fill="#9da5a9" opacity="1.00" d=" M 193.01 2.80 C 193.93 2.81 194.85 2.83 195.77 2.85 C 195.85 4.72 195.90 6.60 195.96 8.48 C 197.84 8.87 201.51 7.83 200.35 11.00 C 198.86 11.33 197.29 11.29 195.87 11.85 C 195.66 15.59 195.61 19.35 195.96 23.08 C 197.81 24.28 201.04 23.71 200.76 26.80 C 198.02 26.94 194.28 27.00 193.29 23.79 C 192.58 19.74 193.08 15.61 192.89 11.52 C 192.02 11.43 190.26 11.23 189.39 11.13 C 189.47 9.03 191.15 8.55 192.90 8.25 C 192.93 6.43 192.96 4.62 193.01 2.80 Z" />
<path fill="#9da5a9" opacity="1.00" d=" M 281.64 3.06 C 283.61 0.94 286.73 1.88 289.28 1.62 C 289.20 8.72 288.98 15.82 289.15 22.91 C 289.99 24.63 292.53 24.14 294.00 25.14 L 294.00 26.61 C 289.98 26.22 284.45 28.69 281.56 24.85 C 283.16 24.58 284.77 24.33 286.38 24.10 C 286.44 17.62 286.41 11.15 286.40 4.67 C 284.79 4.19 283.17 3.73 281.64 3.06 Z" />
<path fill="#9da5a9" opacity="1.00" d=" M 90.70 8.96 C 94.48 8.89 98.27 8.68 102.03 9.00 C 104.40 9.20 105.87 11.66 105.82 13.87 C 106.00 18.17 105.87 22.47 105.80 26.77 C 105.13 26.76 103.80 26.76 103.13 26.75 C 102.92 22.14 103.32 17.51 102.87 12.92 C 101.80 10.77 98.86 11.82 96.97 11.90 C 95.11 16.51 96.82 21.84 96.05 26.71 C 95.41 26.72 94.13 26.74 93.50 26.76 C 93.53 21.65 92.58 16.30 94.18 11.37 C 92.36 11.55 91.13 10.77 90.70 8.96 Z" />
<path fill="#9da5a9" opacity="1.00" d=" M 141.75 8.54 C 142.39 8.70 143.68 9.02 144.32 9.18 C 144.94 13.79 143.77 18.57 144.81 23.10 C 146.22 24.58 149.74 24.65 151.15 22.96 C 151.63 18.35 151.23 13.69 151.38 9.05 C 152.06 8.99 153.40 8.86 154.07 8.79 C 153.57 14.07 155.61 20.10 152.43 24.76 C 153.16 24.68 154.61 24.51 155.33 24.43 C 155.41 25.01 155.57 26.17 155.65 26.75 C 151.26 26.27 144.53 28.87 142.06 23.92 C 141.13 18.88 141.81 13.65 141.75 8.54 Z" />
<path fill="#9da5a9" opacity="1.00" d=" M 166.78 14.00 C 166.37 10.22 170.61 7.64 173.97 8.84 C 176.39 9.40 177.53 11.93 177.40 14.23 C 175.16 15.64 174.48 13.32 173.83 11.57 C 171.94 11.33 169.43 11.36 169.66 13.97 C 172.07 16.94 177.73 17.32 177.89 21.94 C 178.09 26.64 171.60 28.43 168.38 25.73 C 166.64 24.61 166.54 22.43 166.11 20.62 C 166.68 20.50 167.81 20.25 168.38 20.12 C 169.14 21.48 169.32 23.54 171.07 24.05 C 172.70 24.75 174.96 23.96 175.28 22.08 C 173.60 18.29 167.32 18.59 166.78 14.00 Z" />
<path fill="#9da5a9" opacity="1.00" d=" M 215.75 9.24 C 216.39 9.07 217.65 8.75 218.29 8.58 C 218.24 9.11 218.16 10.17 218.11 10.70 C 220.19 9.20 222.66 8.59 225.21 8.64 C 225.78 13.00 220.48 10.43 218.86 13.10 C 218.07 16.74 218.57 20.51 218.54 24.20 C 219.92 24.29 221.32 24.37 222.71 24.46 C 222.72 25.03 222.75 26.18 222.77 26.75 C 219.47 26.89 216.17 26.88 212.87 26.84 C 212.72 26.13 212.56 25.43 212.41 24.73 C 213.46 24.48 214.52 24.23 215.59 23.98 C 215.70 19.07 215.36 14.14 215.75 9.24 Z" />
<path fill="#9da5a9" opacity="1.00" d=" M 237.66 8.98 C 239.89 8.81 242.12 8.86 244.35 8.87 C 244.41 14.97 244.52 21.07 244.27 27.17 C 243.64 27.00 242.37 26.66 241.74 26.49 C 241.26 21.55 241.65 16.59 241.51 11.64 C 239.73 11.22 236.54 11.85 237.66 8.98 Z" />
<path fill="#9da5a9" opacity="1.00" d=" M 257.81 14.04 C 257.69 11.59 259.27 8.95 261.90 8.76 C 264.11 8.31 265.98 9.73 267.79 10.74 C 267.74 10.20 267.65 9.12 267.61 8.59 C 268.24 8.75 269.50 9.07 270.13 9.23 C 270.48 15.23 270.31 21.26 270.15 27.27 C 269.01 26.89 267.99 26.30 267.12 25.49 C 264.51 27.22 260.24 27.87 258.49 24.63 C 257.22 21.28 257.84 17.55 257.81 14.04 M 261.30 12.24 C 259.84 15.50 260.69 19.49 260.81 23.01 C 262.63 24.96 266.88 24.52 267.37 21.61 C 267.65 19.00 267.75 16.31 267.28 13.71 C 266.57 11.29 263.14 10.93 261.30 12.24 Z" />
<path fill="#9da5a9" opacity="1.00" d=" M 25.57 25.63 C 27.16 23.52 30.45 26.73 28.41 28.36 C 26.84 30.48 23.51 27.26 25.57 25.63 Z" />
<path fill="#9da5a9" opacity="1.00" d=" M 145.57 37.64 C 148.38 35.54 151.75 40.21 148.79 42.13 C 146.00 44.44 142.57 39.62 145.57 37.64 Z" />
<path fill="#9da5a9" opacity="1.00" d=" M 69.09 38.72 C 72.75 38.85 76.79 37.93 80.13 39.82 C 83.79 42.27 82.87 47.17 83.03 50.95 C 82.79 54.79 83.94 59.71 80.46 62.43 C 77.15 64.67 72.88 63.67 69.13 63.81 C 68.99 55.45 69.06 47.08 69.09 38.72 M 71.78 41.31 C 71.67 47.94 71.64 54.59 71.79 61.23 C 74.67 61.12 79.35 61.84 80.10 58.01 C 80.43 53.36 80.53 48.63 80.00 43.99 C 78.78 40.60 74.58 41.46 71.78 41.31 Z" />
<path fill="#9da5a9" opacity="1.00" d=" M 97.18 46.24 C 100.43 45.56 105.59 45.00 106.87 49.02 C 107.31 51.27 107.91 54.32 106.00 56.06 C 103.05 56.60 100.05 56.35 97.07 56.50 C 97.28 57.96 96.95 59.67 98.07 60.84 C 100.88 61.20 103.73 61.04 106.56 61.15 C 106.49 61.97 106.39 62.78 106.27 63.59 C 103.15 63.99 99.78 64.30 96.76 63.25 C 93.83 61.60 94.40 57.83 94.31 55.01 C 94.38 51.99 93.76 47.72 97.18 46.24 M 97.07 53.62 C 99.52 53.74 101.97 53.75 104.43 53.71 C 104.29 52.20 104.60 50.56 103.87 49.16 C 102.06 48.21 99.87 48.52 97.95 48.90 C 96.93 50.25 97.28 52.04 97.07 53.62 Z" />
<path fill="#9da5a9" opacity="1.00" d=" M 118.87 51.09 C 118.33 46.93 123.35 44.32 126.79 46.13 C 128.91 46.89 129.09 49.36 129.75 51.18 C 129.17 51.31 128.03 51.58 127.46 51.72 C 126.67 50.69 126.50 48.98 125.11 48.57 C 123.44 47.56 121.58 49.26 121.72 51.01 C 124.09 53.79 129.01 54.17 129.88 58.17 C 130.87 62.68 125.05 65.34 121.51 63.36 C 119.11 62.48 118.58 59.84 118.19 57.62 C 118.75 57.49 119.87 57.25 120.43 57.13 C 121.04 58.28 121.37 59.63 122.28 60.61 C 123.97 61.90 126.93 61.32 127.39 59.06 C 125.61 55.35 119.53 55.57 118.87 51.09 Z" />
<path fill="#9da5a9" opacity="1.00" d=" M 141.74 47.91 C 142.52 44.51 146.62 46.32 149.08 45.86 C 149.13 51.83 149.15 57.81 149.06 63.78 C 148.37 63.77 147.00 63.75 146.31 63.74 C 146.10 58.81 146.43 53.87 146.12 48.94 C 144.89 48.06 143.15 48.34 141.74 47.91 Z" />
<path fill="#9da5a9" opacity="1.00" d=" M 165.20 46.28 C 169.09 45.43 173.13 46.00 177.08 45.91 C 177.09 46.50 177.11 47.69 177.12 48.28 C 176.43 48.23 175.07 48.13 174.39 48.07 C 175.45 52.95 174.87 57.97 175.02 62.92 C 175.01 65.57 175.31 69.06 172.51 70.49 C 169.91 71.51 167.01 70.92 164.29 70.92 C 164.32 70.28 164.39 68.99 164.43 68.35 C 166.62 68.28 168.83 68.36 171.01 68.06 C 173.15 66.35 171.78 63.02 172.29 60.65 C 170.16 61.97 167.51 63.38 165.03 62.01 C 162.09 60.50 162.46 56.74 162.42 53.95 C 162.42 51.25 162.27 47.60 165.20 46.28 M 165.69 49.59 C 164.93 51.98 165.29 54.59 165.33 57.06 C 165.14 60.85 171.85 60.50 172.06 57.06 C 172.03 54.37 173.03 51.03 171.08 48.81 C 169.41 48.80 166.70 47.96 165.69 49.59 Z" />
<path fill="#9da5a9" opacity="1.00" d=" M 187.54 46.03 C 191.00 45.72 194.50 45.73 197.96 46.01 C 200.32 46.20 201.79 48.64 201.71 50.84 C 201.87 55.14 201.75 59.44 201.71 63.75 C 201.05 63.76 199.74 63.78 199.08 63.80 C 198.84 59.20 199.27 54.58 198.80 50.01 C 197.83 47.91 193.27 47.95 192.26 50.02 C 191.78 54.61 192.23 59.25 191.91 63.86 C 191.26 63.81 189.95 63.72 189.30 63.68 C 189.25 58.48 188.98 53.26 189.64 48.09 C 188.89 48.11 187.40 48.16 186.66 48.18 C 186.88 47.64 187.32 46.57 187.54 46.03 Z" />
</g>
</svg>
