<?xml version="1.0" encoding="UTF-8" ?>
<!DOCTYPE svg PUBLIC "-//W3C//DTD SVG 1.1//EN" "http://www.w3.org/Graphics/SVG/1.1/DTD/svg11.dtd">
<svg width="22pt" height="23pt" viewBox="0 0 22 23" version="1.1" xmlns="http://www.w3.org/2000/svg">
<g id="#62767fff">
<path fill="#62767f" opacity="1.00" d=" M 9.08 1.89 C 14.30 -0.95 21.20 2.90 22.00 8.68 L 22.00 11.09 C 21.33 17.45 13.48 21.12 8.15 17.61 C 6.50 19.16 4.97 20.83 3.33 22.39 C 2.50 21.65 1.71 20.87 0.97 20.05 C 2.46 18.40 4.12 16.92 5.65 15.32 C 2.57 10.92 4.12 4.15 9.08 1.89 M 11.23 4.31 C 6.77 5.46 5.59 12.02 9.38 14.64 C 12.65 17.42 18.32 15.19 18.83 10.93 C 19.70 6.77 15.23 2.88 11.23 4.31 Z" />
</g>
</svg>
